<svg width="24" height="24" viewBox="0 0 24 24" fill="none" xmlns="http://www.w3.org/2000/svg">
<path d="M15 10L4 21.001" stroke="black" stroke-width="1.5" stroke-linecap="round" stroke-linejoin="round"/>
<path d="M17.9997 3.00098L14.9997 6.00098C14.4545 6.54623 14.1819 6.81885 14.0361 7.11295C13.7588 7.6725 13.7588 8.32945 14.0361 8.88901C14.1819 9.1831 14.4545 9.45573 14.9997 10.001C15.545 10.5462 15.8176 10.8189 16.1117 10.9646C16.6713 11.2419 17.3282 11.2419 17.8878 10.9646C18.1819 10.8189 18.4545 10.5462 18.9997 10.001L21.9997 7.00098" stroke="black" stroke-width="1.5" stroke-linecap="round" stroke-linejoin="round"/>
<path d="M20 4.99902L17 7.99902" stroke="black" stroke-width="1.5" stroke-linecap="round" stroke-linejoin="round"/>
<path d="M8.84473 9.84571C7.47968 11.2108 5.60771 11.552 3.90145 9.84571C2.19514 8.13939 1.30058 5.03166 2.66563 3.66661C4.03069 2.30156 7.13841 3.19611 8.84473 4.90243C10.551 6.60868 10.2098 8.48065 8.84473 9.84571ZM8.84473 9.84571L20 21.001" stroke="black" stroke-width="1.5" stroke-linecap="round"/>
</svg>
