<svg width="24" height="24" viewBox="0 0 24 24" fill="none" xmlns="http://www.w3.org/2000/svg">
<path d="M5.65796 11.0022L4.18759 14.3105C2.33252 18.4844 1.40498 20.5713 2.41731 21.5837C3.42963 22.596 5.51658 21.6685 9.69049 19.8134L12.9988 18.343C15.5162 17.2242 16.7749 16.6647 16.9752 15.586C17.1755 14.5073 16.2015 13.5333 14.2536 11.5854L12.4156 9.7474C10.4676 7.79944 9.49365 6.82546 8.41494 7.02575C7.33623 7.22604 6.77681 8.48475 5.65796 11.0022Z" stroke="black" stroke-width="1.5" stroke-linecap="round" stroke-linejoin="round"/>
<path d="M6.5 10.5L13.5 17.5M4.5 15.5L8.5 19.5" stroke="black" stroke-width="1.5" stroke-linecap="round" stroke-linejoin="round"/>
<path d="M16 8L19 5" stroke="black" stroke-width="1.5" stroke-linecap="round" stroke-linejoin="round"/>
<path d="M14.1973 2C14.5963 2.66667 14.9156 4.4 13 6" stroke="black" stroke-width="1.5" stroke-linecap="round" stroke-linejoin="round"/>
<path d="M22 9.80274C21.3333 9.40365 19.6 9.08438 18 11" stroke="black" stroke-width="1.5" stroke-linecap="round" stroke-linejoin="round"/>
<path d="M18.001 2V2.02" stroke="black" stroke-width="1.5" stroke-linecap="round" stroke-linejoin="round"/>
<path d="M22.001 6V6.02" stroke="black" stroke-width="1.5" stroke-linecap="round" stroke-linejoin="round"/>
<path d="M21.001 13V13.02" stroke="black" stroke-width="1.5" stroke-linecap="round" stroke-linejoin="round"/>
<path d="M11.001 3V3.02" stroke="black" stroke-width="1.5" stroke-linecap="round" stroke-linejoin="round"/>
</svg>
